<svg width="403" height="305" viewBox="0 0 403 305" fill="none" xmlns="http://www.w3.org/2000/svg">
<g clip-path="url(#clip0)">
<path fill-rule="evenodd" clip-rule="evenodd" d="M33.6337 34.7721C32.1468 36.1344 30.6982 37.535 29.2669 38.9534C28.2066 40.0041 27.1934 41.1031 26.2215 42.2347C25.2496 43.3663 24.3144 44.5341 23.4075 45.7202C22.7551 46.5889 21.9536 47.3871 21.2543 48.2495C20.9046 48.6806 20.5792 49.1308 20.3149 49.6082C20.0505 50.0856 19.849 50.5918 19.7346 51.1474C19.6581 51.5453 19.6609 51.9421 19.7261 52.3287C19.7913 52.7153 19.9174 53.0899 20.0757 53.4613C20.3923 54.2041 20.8433 54.9211 21.2401 55.5805C21.5234 55.9619 21.7689 56.3657 21.9965 56.7813C22.224 57.1969 22.4367 57.6158 22.6536 58.0375C22.8705 58.4592 23.0905 58.8774 23.3418 59.2771C23.593 59.6768 23.8792 60.0614 24.2098 60.4111C24.3757 60.5395 24.5348 60.6272 24.6972 60.6822C24.8596 60.7371 25.0213 60.7616 25.1761 60.7539C25.3309 60.7462 25.4781 60.7088 25.6213 60.6491C25.7644 60.5895 25.9034 60.5047 26.0309 60.4039C26.286 60.2024 26.5029 59.9286 26.6711 59.6274C26.8393 59.3262 26.9569 58.9938 27.006 58.6791C27.4215 58.6727 27.8172 58.5938 28.1804 58.4534C28.5437 58.313 28.8767 58.1113 29.1734 57.863C29.4701 57.6148 29.7292 57.3204 29.9448 56.9904C30.1604 56.6604 30.3287 56.2975 30.4487 55.9118C30.5164 55.7074 30.6102 55.5441 30.7262 55.4069C30.8422 55.2696 30.9835 55.1607 31.1342 55.0712C31.4355 54.892 31.7899 54.7866 32.1477 54.6807C32.5054 54.5749 32.8693 54.4677 33.1738 54.2789C33.3261 54.1845 33.4582 54.0693 33.5767 53.9248C33.6951 53.7804 33.7964 53.6105 33.8673 53.3964C34.0254 53.0876 34.1933 52.7762 34.3815 52.4811C34.5697 52.186 34.7744 51.9036 35.0062 51.6495C35.238 51.3955 35.5029 51.1683 35.7918 50.9827C36.0808 50.797 36.3988 50.6557 36.7584 50.5658C36.9946 50.5392 37.1977 50.4723 37.3823 50.3794C37.5669 50.2865 37.7282 50.1637 37.8757 50.0237C38.1706 49.7438 38.4126 49.3894 38.6465 49.0366C38.8805 48.6838 39.1089 48.3384 39.3984 48.0666C39.5432 47.9307 39.6986 47.8092 39.8792 47.7224C40.0597 47.6355 40.2711 47.5785 40.502 47.56C40.9365 47.4216 41.3017 47.2219 41.6215 46.9698C41.9414 46.7177 42.2126 46.41 42.4479 46.0818C42.6833 45.7537 42.8779 45.3991 43.059 45.0325C43.24 44.6659 43.4015 44.2909 43.5583 43.9235C43.8577 43.7118 44.2285 43.5723 44.612 43.4507C44.9955 43.329 45.3943 43.2217 45.7687 43.0914C46.1431 42.9611 46.4924 42.8052 46.7645 42.5675C46.9006 42.4486 47.0171 42.3145 47.1101 42.1503C47.2031 41.9861 47.2685 41.791 47.3068 41.5691C47.2948 41.3388 47.3123 41.1334 47.3546 40.9504C47.3968 40.7673 47.4661 40.6039 47.553 40.4597C47.7268 40.1712 47.9786 39.9553 48.2733 39.7715C48.8628 39.404 49.6194 39.1775 50.23 38.8245C50.4278 38.4779 50.6419 38.162 50.8725 37.8732C51.1031 37.5844 51.3511 37.3256 51.6215 37.0899C51.8919 36.8542 52.185 36.639 52.5022 36.4518C52.8194 36.2646 53.1557 36.1027 53.5267 35.9594C53.9288 35.2475 54.4861 34.5379 54.9447 33.7982C55.174 33.4283 55.3856 33.0534 55.5357 32.6635C55.6859 32.2735 55.7721 31.8704 55.7808 31.4516C55.4813 31.0283 55.1299 30.656 54.7374 30.3271C54.345 29.9982 53.9125 29.7116 53.4655 29.4447C52.5713 28.911 51.6147 28.4698 50.7316 27.99C49.9495 27.6352 49.1963 27.0603 48.4092 26.634C48.0156 26.4209 47.6121 26.2432 47.1903 26.1522C46.9794 26.1066 46.7638 26.0817 46.5424 26.0842C46.3211 26.0867 46.0908 26.1151 45.8567 26.1772C45.1261 26.3771 44.4336 26.6555 43.762 26.9848C43.0905 27.3141 42.442 27.691 41.815 28.1072C41.1881 28.5235 40.5816 28.9736 39.9848 29.4343C39.3881 29.895 38.8043 30.3745 38.2233 30.8372C36.6459 32.0935 35.1202 33.4099 33.6332 34.7723L33.6337 34.7721Z" fill="black"/>
<path d="M26.9414 55.5531C27.3098 56.675 27.9451 55.8029 26.9414 55.5531V55.5531ZM39.8379 43.438C40.2061 44.5601 40.8414 43.6879 39.8379 43.438V43.438ZM29.2623 52.21C29.6308 53.3319 30.2661 52.4596 29.2623 52.21V52.21ZM27.0982 52.9883C27.627 54.1487 28.259 53.5449 27.0982 52.9883V52.9883ZM26.2654 51.6308C26.6339 52.7527 27.2691 51.8804 26.2654 51.6308V51.6308ZM41.9052 37.0778C42.434 38.2382 43.066 37.6344 41.9052 37.0778V37.0778ZM48.5402 30.2194C48.8661 30.927 50.8879 31.3473 50.3397 30.5709C49.0376 30.9429 50.7381 29.4433 49.6182 29.9886C49.3693 30.3616 48.8948 30.191 48.5402 30.2193L48.5402 30.2194ZM39.101 35.7228C39.2562 35.6998 39.4252 35.6764 39.7642 35.6815C40.4699 36.2736 41.6601 37.1037 40.4532 35.8064C40.1805 35.6154 39.932 35.374 39.5803 35.3528C38.9713 35.25 38.6657 35.374 38.3441 35.5932C37.0508 36.9397 39.1914 38.1766 40.0834 39.042C41.2885 39.9384 42.3856 41.0011 43.6773 41.7679C43.1315 40.631 41.56 39.4062 40.6774 38.6691C39.7914 37.8752 38.7855 37.3155 38.577 36.5203C38.5136 36.2782 38.7942 35.7683 39.1006 35.7225L39.101 35.7228ZM25.285 48.281C24.3266 49.0626 25.4703 51.5888 26.5592 50.8091C26.9719 51.1013 28.1619 51.0034 28.1019 50.6474C27.6506 49.6946 26.5171 47.7807 25.2852 48.2811L25.285 48.281ZM27.7701 45.7425C27.157 47.1896 29.1036 48.2344 29.8391 49.3237C30.2799 49.8609 32.1451 51.7749 30.9881 50.0565C29.4512 49.0636 31.4036 47.4963 30.0285 46.5099C29.5051 45.9432 28.5267 45.0932 27.77 45.7425L27.7701 45.7425ZM30.7594 42.682C30.0419 43.5034 32.7019 44.2633 30.8463 44.2305C30.5934 44.8123 31.6775 45.4496 32.1247 44.8748C33.4879 45.4339 34.5145 47.289 35.3212 47.9462C34.644 47.0961 34.1772 45.5194 35.4684 45.9618C34.6741 44.6001 33.5328 43.387 32.2741 42.4388C31.794 42.2158 31.1512 42.3396 30.7591 42.6821L30.7593 42.6819L30.7594 42.682ZM34.661 39.0383C33.0042 40.4223 34.9586 41.8344 36.0116 42.7686C37.1799 43.4245 38.0268 45.7664 39.393 45.3239C38.9542 43.923 37.316 43.1218 36.4454 41.9216C35.9311 41.5165 34.7396 39.6652 36.1623 40.6785C36.6559 41.12 37.7414 41.6365 36.7034 40.6961C35.8628 40.3955 35.6261 38.1773 34.661 39.0384L34.661 39.0383ZM41.3191 32.9708C40.8903 34.4083 43.0958 35.0399 43.9728 35.8952C45.2273 36.6936 46.4399 37.6177 47.8038 38.2038C47.0743 36.9719 45.4515 36.3834 44.3466 35.4499C43.8564 35.0512 41.2211 33.5884 42.9039 33.6157C44.4842 34.8411 46.1489 36.0234 47.9681 36.8985C49.5839 36.8418 46.7392 35.0445 46.0303 34.6979C44.6684 33.863 43.3095 32.2998 41.5531 32.7971L41.319 32.9708L41.3191 32.9708ZM46.2085 28.4438C45.8642 29.5981 49.5354 30.5139 48.0481 28.9393C47.5513 28.603 46.8146 28.0822 46.2085 28.4438ZM43.8295 30.6026C44.0104 32.1699 46.2926 32.8232 47.4357 33.8247C48.1499 34.2089 49.1488 35.0524 49.7687 35.0419C48.9372 34.186 47.719 33.7065 47.0508 32.7152C47.9325 32.3059 49.4321 34.4611 50.15 33.7334C48.124 32.904 46.5686 31.2098 44.5186 30.4406C44.2821 30.3767 44.0062 30.4249 43.8295 30.6027L43.8295 30.6026ZM50.7268 27.9904C49.1625 27.2807 47.7324 25.6815 45.8598 26.1789C42.9377 26.9784 40.5451 28.9831 38.2212 30.8338C35.0664 33.3463 32.1275 36.1208 29.2652 38.9572C27.1446 41.0587 25.2241 43.3483 23.4103 45.7206C22.1055 47.458 20.1897 48.9274 19.7317 51.1498C19.4257 52.7416 20.4482 54.2576 21.2419 55.5764C22.3749 57.1021 22.8823 59.0135 24.2048 60.4119C25.5321 61.4391 26.8107 59.9429 27.0068 58.6844C28.6687 58.6584 29.9708 57.4569 30.4512 55.9139C30.9924 54.2785 33.3001 55.1062 33.8672 53.3936C34.4997 52.158 35.3187 50.9232 36.7571 50.5635C38.6471 50.3506 38.6502 47.7088 40.4974 47.5605C42.2355 47.0071 42.9357 45.3933 43.5631 43.9238C44.7606 43.0771 47.0038 43.3453 47.3102 41.57C47.2139 39.7274 49.0095 39.5315 50.2306 38.8254C51.0219 37.4394 52.0473 36.5333 53.5312 35.9604C54.3354 34.5366 55.7505 33.127 55.7854 31.4517C54.5874 29.7587 52.4925 28.9498 50.7267 27.9905L50.7267 27.9904L50.7268 27.9904ZM23.1219 47.7699C25.0132 45.4287 26.8735 43.0505 28.9329 40.8532C32.7661 37.0572 36.7488 33.3748 41.1018 30.1786C42.9369 29.034 44.7766 27.6835 46.9336 27.2576C49.2347 27.9057 51.1441 29.4696 53.2682 30.5235C54.6584 30.9939 55.1509 32.4117 53.9677 33.415C53.4653 34.9127 52.4152 35.7432 50.9635 36.1377C49.8102 36.9704 49.8563 39.0613 47.9899 38.8154C46.2303 38.8074 47.1084 41.3157 45.8534 41.9792C44.1664 42.2858 42.2469 43.1533 41.8443 44.9978C41.2652 46.6676 39.0605 46.1175 38.3131 47.6946C37.7443 49.5204 35.8327 49.4308 34.6332 50.6127C33.2191 51.3659 32.9954 54.7167 30.9546 53.5787C29.8574 52.5934 30.669 54.8716 29.584 55.0861C29.1056 56.1757 28.7172 58.1018 27.0078 57.7847C26.4984 56.8119 24.9443 55.5071 25.3821 54.384C26.0212 54.5109 26.8379 55.5802 26.1384 54.2358C25.3728 52.9165 24.4909 51.4744 23.0564 50.8201C21.1946 50.9921 23.404 53.2153 23.7206 54.1095C24.5199 55.5687 25.6527 56.9035 26.0893 58.5259C25.9579 59.8793 24.5365 60.1218 24.1136 58.7635C23.0598 57.2386 22.5438 55.4263 21.5033 53.8854C20.8109 52.7704 20.306 51.1855 21.3622 50.1188C21.9488 49.3358 22.5352 48.5528 23.1219 47.7696L23.1219 47.7696L23.1219 47.7699Z" fill="#777777"/>
<path d="M30.0873 58.5676C30.8905 57.3595 32.3916 55.6823 34.411 53.7012C36.265 51.8824 38.3008 50.0479 40.1659 48.3672C40.5519 48.0193 40.9307 47.678 41.2989 47.3449C41.7234 46.9609 42.1593 46.5644 42.6042 46.1598C44.4167 44.5112 46.3771 42.7281 48.3097 41.1091C50.4798 39.291 52.2949 37.9593 53.5753 37.2768C53.664 37.3169 53.772 37.3699 53.9006 37.4397C54.7008 37.874 55.7301 38.6705 56.7774 39.7149C57.8106 40.7451 58.6965 41.8518 59.2669 42.7668C59.4945 43.1319 59.637 43.4112 59.7183 43.5985C59.6768 44.0908 59.6796 44.6925 59.8242 45.3477C60.0443 46.3446 60.5096 47.1072 60.9757 47.6784C61.3839 48.1786 61.8593 48.6082 62.2074 48.9164C62.3764 49.0659 62.5629 49.2276 62.7484 49.3885L62.821 49.4514C63.0364 49.6383 63.2649 49.8368 63.5155 50.0588L63.5157 50.0589C72.8861 58.3545 86.9077 71.1505 99.1264 83.3258C102.668 86.8551 105.803 90.2597 108.747 93.4914C109.122 93.9038 109.496 94.3142 109.867 94.7224C112.382 97.4882 114.799 100.146 117.179 102.564C122.651 108.124 128.291 112.807 135.568 115.326L135.881 115.435L136.208 115.49C138.647 115.903 141.168 116.127 143.524 116.337L143.755 116.358C146.238 116.579 148.553 116.792 150.772 117.179C155.169 117.945 158.71 119.319 161.419 122.289C184.5 147.598 207.494 172.979 230.492 198.366C241.994 211.062 253.497 223.76 265.013 236.45C265.495 236.981 266.287 238.78 266.253 241.986C266.222 244.993 265.453 248.583 263.712 251.997C259.954 259.366 253.358 267.091 246.423 273.388C239.488 279.685 231.171 285.505 223.475 288.532C219.907 289.934 216.257 290.355 213.26 290.096C210.064 289.82 208.35 288.858 207.869 288.328C196.352 275.636 184.826 262.956 173.302 250.277C150.259 224.926 127.221 199.58 104.264 174.155C101.569 171.17 100.545 167.511 100.208 163.057C100.038 160.81 100.05 158.483 100.071 155.99L100.072 155.758C100.092 153.392 100.112 150.86 99.9377 148.392L99.9142 148.061L99.8365 147.738C98.0335 140.25 93.9187 134.184 88.9148 128.199C86.7395 125.598 84.3284 122.935 81.8197 120.165C81.449 119.755 81.0762 119.344 80.7017 118.929C77.7703 115.687 74.6852 112.237 71.5152 108.37C60.5789 95.0278 49.1976 79.8306 41.847 69.6994C41.6504 69.4284 41.4749 69.1818 41.3098 68.9492C41.2912 68.9231 41.2727 68.897 41.2541 68.8708C41.112 68.6706 40.9691 68.4694 40.8367 68.2867C40.5637 67.9104 40.1822 67.3956 39.7239 66.941C39.2004 66.4217 38.4864 65.8847 37.5155 65.5692C36.8774 65.3618 36.2788 65.3009 35.7849 65.2945C35.6063 65.1955 35.3421 65.0265 35.0006 64.7646C34.1451 64.1083 33.1294 63.1195 32.2041 61.9915C31.2661 60.848 30.573 59.7465 30.2183 58.9081C30.1612 58.7729 30.1187 58.66 30.0873 58.5676ZM35.9959 65.3958C35.9962 65.3967 35.9827 65.3923 35.9545 65.38C35.9815 65.3888 35.9956 65.3949 35.9959 65.3958ZM59.7988 43.8185C59.798 43.8182 59.7932 43.8036 59.7872 43.7759C59.7967 43.8051 59.7997 43.8189 59.7988 43.8185ZM53.2985 37.1701C53.2663 37.1659 53.2491 37.1611 53.2486 37.1597C53.2481 37.1583 53.2642 37.1604 53.2985 37.1701Z" stroke="black" stroke-width="8"/>
</g>
<g clip-path="url(#clip1)">
<path d="M287.716 63.9541L280.511 60.4366L278.009 63.2686L266.734 126.975L274.999 128.568L287.716 63.9543L287.716 63.9541Z" fill="white" stroke="black" stroke-width="1.5"/>
<path d="M342.952 92.9799L337.279 85.7952L333.703 87.166L316.417 125.067L324.665 129.438L342.951 92.98L342.952 92.9799Z" fill="white" stroke="black" stroke-width="1.5"/>
<path d="M313.214 80.5032L323.611 77.0666L306.846 131.323L301.284 118.863L313.214 80.5035L313.214 80.5032Z" fill="white" stroke="black" stroke-width="1.5"/>
<path d="M317.816 63.6694L311.279 59.0199L308.353 61.4063L286.915 122.442L294.808 125.365L317.815 63.6721L317.816 63.6694Z" fill="white" stroke="black" stroke-width="1.5"/>
<path d="M367.502 36.9734L358.532 36.1013L359.695 91.7206L366.241 89.6271L367.503 36.9737L367.502 36.9734Z" fill="white" stroke="black" stroke-width="1.5"/>
<path d="M358.829 31.7808L349.174 34.7853L355.195 74.8011L362.253 76.7005L358.829 31.7808L358.829 31.7808Z" fill="white" stroke="black" stroke-width="1.5"/>
<path d="M305.302 55.299L312.554 15.7637L319.754 27.335L313.025 59.2452L305.302 55.2987L305.302 55.299Z" fill="white" stroke="black" stroke-width="1.5"/>
<path d="M347.583 42.4288L358.406 40.822L332.684 91.432L329.321 78.1973L347.583 42.4289L347.583 42.4288Z" fill="white" stroke="black" stroke-width="1.5"/>
<path d="M304.012 23.2833L296.037 18.5334L292.29 23.2614L286.64 72.0247L297.399 74.1339L304.012 23.2835L304.012 23.2833Z" fill="white" stroke="black" stroke-width="1.5"/>
<path d="M354.62 85.2446L371.168 48.6223L375.367 61.6052L361.161 90.9515L354.621 85.2444L354.62 85.2446Z" fill="white" stroke="black" stroke-width="1.5"/>
<path d="M385.628 55.5918L380.109 48.1083L374.836 51.0162L350.852 93.8291L359.952 99.9566L385.628 55.5917L385.628 55.5918Z" fill="white" stroke="black" stroke-width="1.5"/>
<path d="M375.231 45.8741L367.601 38.0181L357.385 93.8799L368.077 85.4042L375.231 45.8741L375.231 45.8741Z" fill="white" stroke="black" stroke-width="1.5"/>
<path d="M370.236 55.7221L360.388 54.8918L349.364 84.3651L358.166 89.6938L370.235 55.7221L370.236 55.7221Z" fill="white" stroke="black" stroke-width="1.5"/>
<path d="M384.956 66.6498L375.732 63.1013L356.991 88.3513L363.966 95.9316L384.956 66.6503L384.956 66.6498Z" fill="white" stroke="black" stroke-width="1.5"/>
<path d="M262.343 33.1538L253.391 30.7136L251.032 36.271L258.52 84.7546L269.456 83.9059L262.343 33.1538L262.343 33.1538Z" fill="white" stroke="black" stroke-width="1.5"/>
<path d="M285.962 27.1639L276.706 21.3301L279.822 78.0111L288.24 67.2559L285.962 27.1634L285.962 27.1639Z" fill="white" stroke="black" stroke-width="1.5"/>
<path d="M267.743 49.4376L259.295 45.9551L256.836 48.903L260.143 90.4175L269.474 90.1847L267.743 49.4371L267.743 49.4376Z" fill="white" stroke="black" stroke-width="1.5"/>
<path d="M268.868 24.1912L260.928 23.087L259.42 26.5554L268.304 90.5964L276.66 89.5425L268.867 24.1948L268.868 24.1912Z" fill="white" stroke="black" stroke-width="1.5"/>
<path d="M294.567 26.3721L286.986 23.769L284.848 26.8868L281.427 91.481L289.826 92.044L294.568 26.3738L294.567 26.3721Z" fill="white" stroke="black" stroke-width="1.5"/>
<path d="M266.243 29.7886L274.804 26.1695L277.857 31.3625L276.665 80.4308L265.715 81.0554L266.243 29.7894L266.243 29.7886Z" fill="white" stroke="black" stroke-width="1.5"/>
<path d="M307.233 45.5861L312.844 51.1414L310.628 77.7001L302.78 81.1322L307.233 45.5854L307.233 45.5861Z" fill="white" stroke="black" stroke-width="1.5"/>
<path d="M307.039 29.8318L298.059 30.639L309.426 85.0638L315.477 81.793L307.04 29.8319L307.039 29.8318Z" fill="white" stroke="black" stroke-width="1.5"/>
<path d="M297.407 85.2492L295.727 45.1031L286.985 55.5846L289.208 88.1071L297.407 85.2492V85.2492Z" fill="white" stroke="black" stroke-width="1.5"/>
<path d="M339.876 30.6502L332.508 22.5459L320.471 78.0443L331.433 69.9254L339.876 30.6502L339.876 30.6502Z" fill="white" stroke="black" stroke-width="1.5"/>
<path d="M350.855 38.024L344.242 33.4837L341.356 35.9182L320.922 97.3012L328.863 100.093L350.855 38.0257L350.855 38.024Z" fill="white" stroke="black" stroke-width="1.5"/>
<path d="M320.335 35.3894L329.541 34.1909L331.104 40.0164L316.937 87.019L306.224 84.6899L320.334 35.3894L320.335 35.3894Z" fill="white" stroke="black" stroke-width="1.5"/>
<path d="M370.539 52.6821L375.03 59.185L367.97 84.887L359.63 86.806L370.539 52.6822L370.539 52.6821Z" fill="white" stroke="black" stroke-width="1.5"/>
<path d="M353.595 89.8546L359.325 50.0714L348.81 58.7549L345.016 91.144L353.595 89.8548L353.595 89.8546Z" fill="white" stroke="black" stroke-width="1.5"/>
<path d="M297.264 41.5921L307.244 37.0735L296.267 92.7907L289.427 80.9921L297.265 41.5916L297.264 41.5921Z" fill="white" stroke="black" stroke-width="1.5"/>
<path d="M311.378 56.6118L320.23 54.3123L322.256 57.5668L313.201 98.2366L303.991 96.7359L311.378 56.6123L311.378 56.6118Z" fill="white" stroke="black" stroke-width="1.5"/>
<path d="M296.039 41.7451L287.099 46.4877L300.374 84.6826L307.662 85.2394L296.038 41.7451L296.039 41.7451Z" fill="white" stroke="black" stroke-width="1.5"/>
<path d="M331.016 54.3181L339.936 51.7245L342.365 57.2407L335.491 105.847L324.545 105.186L331.015 54.3178L331.016 54.3181Z" fill="white" stroke="black" stroke-width="1.5"/>
<path d="M314.826 32.569L322.843 32.556L323.855 36.1967L306.14 98.4202L298.01 96.239L314.826 32.5692L314.826 32.569Z" fill="white" stroke="black" stroke-width="1.5"/>
<path d="M356.6 54.3191L367.233 49.6411L354.659 101.583L342.023 104.25L356.6 54.3187L356.6 54.3191Z" fill="white" stroke="black" stroke-width="1.5"/>
<path d="M377.797 51.2983L370.592 47.7808L368.09 50.6128L356.815 114.319L365.08 115.912L377.797 51.2985L377.797 51.2983Z" fill="white" stroke="black" stroke-width="1.5"/>
<path d="M300.775 33.0519L308.647 31.5055L310.33 34.8847L304.726 99.3321L296.329 98.7465L300.775 33.0511L300.775 33.0519Z" fill="white" stroke="black" stroke-width="1.5"/>
<path d="M347.457 61.0837L355.787 66.4093L346.693 96.5362L336.469 95.4217L347.456 61.0837L347.457 61.0837Z" fill="white" stroke="black" stroke-width="1.5"/>
<path d="M324.853 63.5107L334.334 66.2965L333.932 97.7571L323.796 99.5429L324.853 63.5111L324.853 63.5107Z" fill="white" stroke="black" stroke-width="1.5"/>
<path d="M272.804 47.4186L266.472 52.1576L264.971 78.7657L272.265 83.2333L272.803 47.419L272.804 47.4186Z" fill="white" stroke="black" stroke-width="1.5"/>
<path d="M284.425 45.1381L292.619 51.0521L274.153 87.0765L266.856 86.6359L284.424 45.1382L284.425 45.1381Z" fill="white" stroke="black" stroke-width="1.5"/>
<path d="M276.758 36.8709L285.54 38.8927L266.704 91.2519L261.166 87.1886L276.757 36.8709L276.758 36.8709Z" fill="white" stroke="black" stroke-width="1.5"/>
<path d="M321.471 67.6765L310.706 106.403L322.241 99.1449L330.142 67.5042L321.471 67.6767L321.471 67.6765Z" fill="white" stroke="black" stroke-width="1.5"/>
<path d="M337.7 96.7332L346.734 57.5665L335.531 65.3343L329.044 97.2947L337.699 96.7335L337.7 96.7332Z" fill="white" stroke="black" stroke-width="1.5"/>
<path d="M300.777 66.4456L291.015 68.0207L287.37 99.2768L297.194 102.318L300.777 66.4456L300.777 66.4456Z" fill="white" stroke="black" stroke-width="1.5"/>
<path d="M352.568 105.824L355.492 70.6521L347.782 74.724L343.988 107.113L352.568 105.824L352.568 105.824Z" fill="white" stroke="black" stroke-width="1.5"/>
<path opacity="0.3" d="M284.287 45.731L292.482 51.6449L274.016 87.6684L266.719 87.2278L284.287 45.7298L284.287 45.731Z" fill="white" stroke="black"/>
<path d="M235.347 50.3658L253.702 52.365C291.902 113.61 332.333 98.5059 373.628 79.4174L390.899 84.7847L337.293 217.148C307.225 205.132 276.951 193.372 237.298 193.292L235.347 50.365L235.347 50.3658Z" fill="white" stroke="black" stroke-width="7.7193"/>
</g>
<defs>
<clipPath id="clip0">
</clipPath>
<clipPath id="clip1">
</clipPath>
</defs>
</svg>
