<?xml version="1.0" encoding="UTF-8"?>
<svg viewBox="0 0 313 1187" xmlns="http://www.w3.org/2000/svg">
 <path d="m166.74 3e-4c-7.4034 0.03528-14.797 0.26908-22.188 0.59375-5.475 0.24053-10.941 0.72822-16.375 1.4062-5.4342 0.67803-10.858 1.5449-16.25 2.5312-3.9168 0.75147-8.065 0.944-12.094 1.5625-2.0144 0.30925-4.0096 0.73001-5.9062 1.375-1.8967 0.64499-3.6932 1.5233-5.375 2.75-1.1897 0.89228-2.1611 1.9769-2.9375 3.1875-0.77638 1.2106-1.3578 2.5387-1.8438 3.9375-0.97192 2.7976-1.5147 5.8562-2.0625 8.625-0.17096 1.7339-0.4996 3.4356-0.90625 5.125s-0.86184 3.3515-1.3125 5.0312-0.88451 3.3578-1.1875 5.0625-0.47387 3.4544-0.4375 5.2188c0.13431 0.75761 0.35033 1.3881 0.65625 1.9375 0.30592 0.54937 0.68505 1.0145 1.125 1.375 0.43995 0.36046 0.93236 0.6216 1.4688 0.8125 0.53639 0.1909 1.1235 0.30308 1.7188 0.34375 1.1905 0.081341 2.4558-0.12772 3.6562-0.53125s2.3403-1.0163 3.25-1.75c1.1456 1.0063 2.4159 1.7673 3.75 2.2812 1.3341 0.51397 2.7372 0.78686 4.1562 0.84375 1.419 0.056889 2.8497-0.10376 4.25-0.46875s2.7532-0.93586 4.0312-1.6875c0.68826-0.38844 1.3461-0.60072 2-0.6875 0.65394-0.086781 1.3069-0.03429 1.9375 0.09375 1.2612 0.25609 2.4851 0.8432 3.7188 1.4375 1.2336 0.5943 2.4874 1.1997 3.7812 1.4375 0.64692 0.11889 1.2903 0.13175 1.9688 0.03125 0.67844-0.1005 1.3728-0.31202 2.0938-0.71875 1.1919-0.44917 2.4164-0.88103 3.6562-1.2188 1.2398-0.33772 2.493-0.60005 3.75-0.71875s2.5377-0.082878 3.7812 0.125 2.4568 0.60796 3.6562 1.25c0.70793 0.50992 1.4253 0.8287 2.1562 1.0312 0.73099 0.20255 1.4725 0.26669 2.2188 0.25 1.4924-0.033379 3.0248-0.3997 4.5312-0.78125 1.5065-0.38155 2.9795-0.75661 4.4375-0.78125 0.729-0.012321 1.4511 0.04089 2.1562 0.25 0.70515 0.2091 1.4203 0.57509 2.0938 1.0938 1.5229 0.69512 3.0084 1.0526 4.5 1.1562 1.4916 0.1037 2.988-0.06385 4.4375-0.375s2.8534-0.79431 4.25-1.3438c1.3966-0.54944 2.761-1.1701 4.0938-1.7812 1.3362 0.16293 2.6885 0.69784 4.0312 1.3125s2.6918 1.3063 4.0312 1.875c1.3395 0.56866 2.6736 1.0063 4 1.0312 0.66319 0.012459 1.3107-0.064461 1.9688-0.28125 0.65808-0.21679 1.317-0.58548 1.9688-1.0938 0.53543-0.65517 1.0897-1.1695 1.6562-1.5625 0.56653-0.39303 1.1578-0.66623 1.75-0.84375 1.1844-0.35504 2.4015-0.32103 3.6562-0.09375 2.5095 0.45455 5.1251 1.7042 7.6562 2.25 1.3927-0.45352 2.7544-0.78395 4.0938-1s2.6522-0.30748 3.9688-0.28125c1.3165 0.02623 2.6446 0.16419 3.9688 0.4375 1.3241 0.27332 2.6379 0.66229 4 1.1875 2.8496-0.94239 6.1154-1.4962 9.1875-2.375 1.536-0.4394 3.036-0.93589 4.4062-1.625 1.3703-0.68911 2.5993-1.5716 3.6562-2.6875 0.23006-1.8876 0.19296-3.7646-0.0625-5.625s-0.72417-3.7046-1.2812-5.5312c-1.1142-3.6532-2.6264-7.2088-3.8438-10.688-1.2508-2.8912-1.8805-6.3086-2.9688-9.4062-0.54413-1.5488-1.2028-3.0256-2.125-4.3125-0.4611-0.64348-0.98579-1.2424-1.5938-1.7812-0.60796-0.53882-1.3041-1.0294-2.0938-1.4375-2.4794-1.2575-5.0493-2.2081-7.6875-2.9688-2.6382-0.76069-5.3311-1.3353-8.0625-1.75-2.7314-0.41469-5.491-0.68673-8.25-0.90625s-5.5291-0.35608-8.25-0.53125c-7.3882-0.47564-14.784-0.66028-22.188-0.625z" fill-rule="evenodd"/>
 <path d="m97.276 39.945c-1.7662 3.9548 2.1126 3.1516 0 0zm64.952-1.1199c-1.767 3.9548 2.112 3.1516 0 0zm-50.394-2.2397c-1.766 3.9548 2.113 3.1516 0 0zm-7.804-3.2196c-1.425 4.4544 1.783 4.3722 0 0zm1.085-5.7392c-1.766 3.9548 2.113 3.1515 0 0zm78.425-0.9799c-1.425 4.4544 1.783 4.3722 0 0zm34.96-2.2747c-0.86 2.7248 3.6 8.8491 4.025 5.3893-4.458-2.1987 3.865-2.0803-0.52499-3.3596-1.597 0.3998-2.466-1.233-3.5-2.0297zm-39.241-8.3161c0.479 0.3201 0.996 0.6728 1.905 1.5222 0.45801 3.3473 1.646 8.5349 1.565 2.0373-0.26999-1.1908-0.34999-2.4586-1.254-3.3833-1.402-1.7799-2.539-2.1962-3.954-2.3937-6.838 0.4697-4.07 9.1044-3.78 13.653 1.065 5.4045 1.426 10.994 3.046 16.26 1.321-4.433 0.070007-11.632-0.511-15.809-0.45-4.3393-1.804-8.3384-0.409-11.012 0.425-0.8138 2.446-1.507 3.392-0.8763zm-68.545 0.0572c-4.534-0.2392-7.657 9.44-2.773 10.006 0.401 1.8106 3.878 4.4772 4.593 3.3627 1.124-3.6998 2.764-11.691-1.82-13.368zm13.019-0.7699c-5.237 2.4193-2.522 10.054-3.21 14.825-0.127 2.5451 0.222 12.34 1.316 4.8219-1.729-6.4844 7.446-5.9293 6.141-11.997-0.025002-2.829-0.588-7.5486-4.247-7.65zm15.678-0.9449c-3.977 0.4627 1.38 9.0817-3.584 4.4197-2.123 0.957-0.748 5.3595 1.886 4.9005 2.327 4.878 0.541 12.446 1.113 16.219 0.256-3.9777 2.877-9.4102 5.296-5.0266 1.2-5.6554 1.09-11.763 0.007004-17.44-0.755-1.789-2.808-3.0367-4.719-3.0728h0.001007zm19.597-0.28c-7.919-0.3247-6.089 8.3269-5.531 13.459 1.558 4.6606-1.917 13.108 2.889 15.273 2.263-4.8859-0.214-11.099 0.37999-16.504-0.39899-2.3677 0.929-10.332 2.297-4.0739 0.25299 2.4157 1.93 6.4934 1.428 1.3813-1.544-2.8881 3.285-9.4954-1.463-9.5353zm33.071-0.07c-4.712 2.8474-0.274 9.9979 0 14.482 1.441 5.2602 2.458 10.758 4.72 15.711 1.056-5.1433-1.904-10.741-2.605-15.999-0.349-2.291-3.905-12.758 0.60301-8.5369 1.273 7.2226 2.882 14.536 5.669 21.396 4.533 3.8278 1.233-8.0638 0.16101-10.752-1.643-5.6239-1.481-13.218-7.483-16.196l-1.065-0.1052zm24.462-0.2449c-3.784 2.2865 3.938 13.821 3.779 5.8793-0.521-2.1378-1.239-5.3677-3.779-5.8793zm-11.794 0c-3.375 4.7023 1.218 12.101 1.855 17.638 0.994 2.8034 1.629 7.556 3.34 9.0554-0.14899-4.3738-2.278-8.6782-1.649-13.017 3.407 1.0613 2.167 10.61 5.914 10.403-3.462-7.2454-3.511-15.68-7.187-22.821-0.485-0.7564-1.354-1.3054-2.273-1.258zm25.197 9.9037c-2.502-5.7824-2.445-13.65-8.763-16.914-9.917-5.0301-21.368-5.4822-32.252-6.1829-14.776-0.95129-29.611-0.6592-44.391-0.00986-10.95 0.48106-21.82 1.9663-32.604 3.939-7.834 1.503-16.668 0.77206-23.396 5.6789-4.759 3.5691-5.7193 10.206-6.815 15.744-0.6838 6.9355-4.02 13.377-3.8745 20.434 1.0745 6.0609 8.2419 5.1485 11.88 2.2138 4.5826 4.0251 11.087 3.9709 16.2 0.9643 5.506-3.1075 9.738 4.8276 15.505 1.5738 4.768-1.7967 10.041-3.132 14.839-0.5639 5.664 4.0794 12.19-3.0873 17.578 1.062 6.091 2.7805 11.976 0.1234 17.307-2.3213 5.345 0.6517 10.782 6.9082 15.995 2.842 4.284-5.2413 9.649-1.3482 14.711-0.2567 5.571-1.814 10.594-1.7476 16.042 0.3533 5.699-1.8848 13.024-2.2258 17.252-6.6894 0.92-7.5503-2.78-14.91-5.214-21.867v-9.9e-5zm-123.85-14.313c10.918-1.6974 21.843-3.5716 32.863-4.4638 19.787-0.86241 39.7-1.048 59.42 0.99927 7.813 1.4142 16.147 2.2802 23.062 6.4392 4.657 7.4313 5.99 16.384 9.165 24.481 2.619 4.7038 0.45999 9.7679-5.232 9.5766-5.061 2.8295-9.965 2.497-14.885-0.009098-5.19-0.5808-10.223 5.2113-14.691-0.056202-4.764-4.358-8.565 4.6178-13.614 3.3268-5.343-3.3248-12.702-5.6991-18.347-1.682-5.694 3.1076-10.331-3.8197-16.254-1.3783-6.051 3.5567-11.027-1.3976-17.204-1.144-5.703-1.4393-14.578 7.1094-17.319-1.0105-0.55199-5.3801-3.966 2.8072-7.445 0.7159-3.989 1.7805-9.7967 6.054-13.662 0.98 1.015-3.8972 0.008904-11.271 3.97-13.242 1.4245 1.9199 1.0068 6.8364 2.4219 1.4616 1.1733-5.4701 2.3335-11.56 0.047501-16.872-5.4859-4.1211-4.9642 7.3615-6.3094 10.57-1.4269 5.9328-1.6402 12.35-4.4559 17.832-3.6962 3.3519-8.1589 0.5074-5.9577-4.2238 0.8972-6.7382 3.9653-12.932 4.9383-19.681 0.8681-4.7346 3.4055-10.283 8.9088-10.577 3.5266-0.6811 7.0529-1.3622 10.58-2.0433v-1e-5z"/>
 <path d="m91.521 42.625c-13.144 4.4759-13.159 49.089-5 55.656 3.8095 3.0665 2.9219 4.8305 1.7813 15.218-5.0276 45.788-11.61 115.42-14.813 179-3.7651 74.754 5.5532 126.78-18.344 170.41-21.481 27.298-54.841 50.947-54.938 89.656-0.4691 188.48 0 376.96 0 565.44 0 16.13 20.767 41.13 51.406 52.73 30.64 11.6 69.549 16.39 104.96 16.38 35.419-0.01001 74.343-4.84 104.98-16.44 30.635-11.6 51.375-36.61 51.375-52.73 0-188.46 0.46899-376.92 0-565.38-0.096985-38.704-33.429-62.33-54.907-89.625-23.893-43.617-14.579-95.663-18.343-170.41-3.202-63.572-9.786-133.19-14.813-178.97-1.14-10.387-2.028-12.153 1.782-15.219 8.158-6.5661 8.142-51.181-5-55.656-14.227-4.8443-44.246-4.2862-65.064-4.3175-20.818-0.0312-50.833-0.5899-65.062 4.255z"/>
</svg>
