<?xml version="1.0" encoding="iso-8859-1"?>
<!-- Generator: Adobe Illustrator 16.0.0, SVG Export Plug-In . SVG Version: 6.00 Build 0)  -->
<!DOCTYPE svg PUBLIC "-//W3C//DTD SVG 1.1//EN" "http://www.w3.org/Graphics/SVG/1.1/DTD/svg11.dtd">
<svg version="1.1" id="Capa_1" xmlns="http://www.w3.org/2000/svg" xmlns:xlink="http://www.w3.org/1999/xlink" x="0px" y="0px"
	 width="54.595px" height="54.595px" viewBox="0 0 54.595 54.595" style="enable-background:new 0 0 54.595 54.595;"
	 xml:space="preserve">
<g>
	<g>
		<path d="M3.968,42.481c0.553,1.358,2.216,2.472,3.683,2.501l29.445,0.632c1.464,0.031,3.503-0.771,4.551-1.798l9.642-9.438
			c1.049-1.021,1.897-2.795,1.897-3.949c0-1.155,0-2.096,0-2.096l0.704-1.494c0.391-0.824,0.706-2.681,0.706-4.146v-4.811
			l-0.957,0.816l-3.249-3.933c-0.986-1.199-1.912-1.195-2.372-1.086c-0.464,0.109-1.292,0.519-1.64,2.033l-0.155,0.678l-1.363-4.994
			c-0.288-1.061-0.943-1.844-1.845-2.205c-0.899-0.364-1.917-0.252-2.856,0.311l-5.146,3.074c-1.182-1.544-3.399-2.207-5.217-1.459
			l-5.844,2.396c-0.462-0.756-1.122-1.273-1.92-1.448c-0.941-0.205-1.917,0.076-2.75,0.796l-2.718,2.352l-5.823-1.696
			c-1.027-0.35-2.069-0.258-2.937,0.258s-1.444,1.39-1.624,2.458l-0.917,5.425l-1.896-0.595c-1.477-0.464-2.266,0.044-2.604,0.388
			c-0.337,0.344-0.831,1.139-0.341,2.609l1.987,5.975c-2.437-0.965-1.556-3.113-1.556-3.113
			C-1.678,27.748,2.045,37.751,3.968,42.481z M4.995,30.495c-0.394-0.015-0.744-0.044-1.069-0.086l-0.149-0.449l1.846-1.369
			c0.955-0.708,2.512-0.362,3.474,0.772l1.076,1.27C7.872,30.574,6.035,30.525,4.995,30.495z M10.512,28.983l-0.017-0.021
			l0.074-0.021L10.512,28.983z M9.603,21.481c-0.193-0.637-0.128-1.206,0.182-1.601c0.308-0.396,0.846-0.597,1.534-0.563
			l9.883,0.092c-0.081,0.164-0.191,0.323-0.332,0.46c-0.195,0.187-0.61,0.489-1.2,0.428c-3.008-0.31-3.491,0.245-3.697,0.482
			c-0.18,0.204-0.276,0.455-0.283,0.714c-0.228,0.595-1.369,2.116-2.209,2.116c-0.702,0-1.322,0.248-1.79,0.717
			c-0.44,0.441-0.669,1.002-0.788,1.474L9.603,21.481z M11.949,30.677L11.373,30l7.085-5.014c1.243-0.883,3.135-0.726,4.218,0.345
			l5.815,5.751C23.191,30.954,16.849,30.799,11.949,30.677z M22.778,23.768l4.668-6.204c0.414-0.555,0.997-0.888,1.632-0.938
			c0.64-0.054,1.263,0.185,1.763,0.665l4.66,4.476c-0.354-0.034-0.725-0.027-1.128,0.062l-10.929,2.426
			C23.24,24.07,23.017,23.908,22.778,23.768z M30.219,31.121l0.1-0.103l-5.725-5.661l10.07-2.235
			c0.635-0.14,1.149-0.049,1.448,0.255c0.303,0.305,0.385,0.822,0.235,1.454l-1.52,6.398C33.511,31.199,31.945,31.161,30.219,31.121
			z M47.671,16.016c0.132-0.578,0.38-0.976,0.65-1.04c0.276-0.065,0.67,0.182,1.046,0.64l3.262,3.95l-7.186,6.126L47.671,16.016z
			 M30.294,12.349c1.396-0.572,3.137,0.03,3.882,1.339l1.998,3.518c-0.016,0.431,0.022,0.873,0.122,1.258
			c-0.513,0.084-0.88,0.554-0.828,1.077c0.051,0.515,0.484,0.9,0.987,0.9c0.033,0,0.065-0.002,0.099-0.005
			c0.272-0.026,1.2-0.17,1.644-0.906c0.251-0.421,0.277-0.924,0.069-1.418c-0.088-0.213-0.155-0.729-0.084-1.155
			c0.313-0.09,1.074-0.023,1.42,0.007c0.157,0.014,0.31,0.028,0.441,0.035c1.103,0.061,1.677-0.427,1.988-0.93
			c0.213,0.159,0.444,0.414,0.515,0.665c0.027,0.105,0.035,0.187-0.126,0.333c-0.413,0.365-0.453,0.995-0.086,1.405
			c0.364,0.412,0.993,0.45,1.406,0.085c0.783-0.695,1.018-1.683,0.627-2.644c-0.456-1.128-1.7-2.028-2.689-1.997
			c-0.622,0.029-1.117,0.413-1.296,1.001c-0.014,0.045-0.024,0.075-0.025,0.088c-0.033,0.004-0.099,0.01-0.194,0.004
			c-0.115-0.006-0.244-0.018-0.387-0.03c-0.846-0.074-2.254-0.185-3.021,0.556l-1.04-1.83l5.124-3.061
			c0.581-0.346,1.176-0.424,1.681-0.22c0.506,0.204,0.884,0.674,1.061,1.324l2.017,7.38l-1.845,8.004l-4.912,4.189
			c0,0-0.998-0.022-2.654-0.064l1.455-6.122c0.258-1.095,0.053-2.047-0.581-2.691c-0.138-0.14-0.296-0.25-0.461-0.349l0.56-0.584
			l-5.394-5.181c-0.778-0.748-1.776-1.114-2.79-1.031c-1.02,0.082-1.939,0.602-2.587,1.463L25.82,17.52l-1.277-2.814L30.294,12.349z
			 M20.146,13.869c0.508-0.44,1.077-0.619,1.599-0.503c0.523,0.115,0.964,0.516,1.241,1.126l1.923,4.238l-3.396,4.514
			c-1.297-0.316-2.736-0.112-3.822,0.656l-6.067,4.297l-0.149-0.499c0.096,0.029,0.192,0.062,0.296,0.062c0.001,0,0.002,0,0.002,0
			c0.549-0.003,0.994-0.451,0.993-1c0-0.184,0.079-0.77,0.334-1.027c0.064-0.064,0.161-0.131,0.381-0.131
			c1.449,0,2.606-1.199,3.169-1.913c0.284-0.364,0.68-0.92,0.889-1.467c0.366-0.031,1.012-0.037,1.924,0.057
			c1.019,0.104,2.036-0.25,2.788-0.975c0.733-0.704,1.136-1.681,1.074-2.611c-0.035-0.548-0.511-0.958-1.058-0.929
			c-0.267,0.018-0.499,0.141-0.667,0.323l-6.261-0.059L20.146,13.869z M7.483,16.458c0.114-0.679,0.469-1.225,0.996-1.54
			s1.177-0.364,1.858-0.132l5.027,1.464l-2.032,1.758l-1.979-0.019c-1.104-0.055-2.035,0.328-2.617,1.073
			c-0.583,0.745-0.727,1.74-0.409,2.801l0.254,0.843l-2.047-0.644L7.483,16.458z M1.674,23.646c-0.19-0.576-0.179-1.047,0.031-1.261
			c0.21-0.214,0.682-0.233,1.259-0.052l6.082,1.911l1.407,4.669l-0.347-0.411c-1.403-1.657-3.771-2.098-5.276-0.979l-1.496,1.113
			L1.674,23.646z"/>
		<rect x="5.227" y="24.357" width="1.675" height="0.553"/>
		<rect x="14.351" y="29.252" width="1.675" height="0.553"/>
		<rect x="26.459" y="19.835" width="1.674" height="0.552"/>
		<rect x="19.287" y="16.626" width="1.676" height="0.553"/>
		<rect x="32.502" y="14.154" width="1.675" height="0.553"/>
		<rect x="39.707" y="12.116" width="1.675" height="0.552"/>
		<rect x="38.334" y="27.009" width="1.676" height="0.554"/>
		<rect x="40.544" y="22.483" width="1.674" height="0.554"/>
		<path d="M48.928,20.704l-0.473-1.607l0.529-0.155l0.473,1.606L48.928,20.704z"/>
		<path d="M28.659,28.224l-1.367-0.971l0.319-0.451l1.367,0.971L28.659,28.224z M39.306,18.401l1.365,0.971l-0.319,0.45
			l-1.365-0.971L39.306,18.401z"/>
	</g>
</g>
<g>
</g>
<g>
</g>
<g>
</g>
<g>
</g>
<g>
</g>
<g>
</g>
<g>
</g>
<g>
</g>
<g>
</g>
<g>
</g>
<g>
</g>
<g>
</g>
<g>
</g>
<g>
</g>
<g>
</g>
</svg>
