<svg width="490" height="74" viewBox="0 0 490 74" fill="none" xmlns="http://www.w3.org/2000/svg">
<g id="SIMONE&#226;&#128;&#153;S" filter="url(#filter0_i)">
<path d="M27.7355 73.152C22.4235 73.152 17.2715 72.448 12.2795 71.04C7.3515 69.568 3.3835 67.68 0.3755 65.376L5.6555 53.664C8.5355 55.776 11.9595 57.472 15.9275 58.752C19.8955 60.032 23.8635 60.672 27.8315 60.672C32.2475 60.672 35.5115 60.032 37.6235 58.752C39.7355 57.408 40.7915 55.648 40.7915 53.472C40.7915 51.872 40.1515 50.56 38.8715 49.536C37.6555 48.448 36.0555 47.584 34.0715 46.944C32.1515 46.304 29.5275 45.6 26.1995 44.832C21.0795 43.616 16.8875 42.4 13.6235 41.184C10.3595 39.968 7.5435 38.016 5.1755 35.328C2.8715 32.64 1.7195 29.056 1.7195 24.576C1.7195 20.672 2.7755 17.152 4.8875 14.016C6.9995 10.816 10.1675 8.288 14.3915 6.432C18.6795 4.576 23.8955 3.648 30.0395 3.648C34.3275 3.648 38.5195 4.16 42.6155 5.184C46.7115 6.208 50.2955 7.68 53.3675 9.6L48.5675 21.408C42.3595 17.888 36.1515 16.128 29.9435 16.128C25.5915 16.128 22.3595 16.832 20.2475 18.24C18.1995 19.648 17.1755 21.504 17.1755 23.808C17.1755 26.112 18.3595 27.84 20.7275 28.992C23.1595 30.08 26.8395 31.168 31.7675 32.256C36.8875 33.472 41.0795 34.688 44.3435 35.904C47.6075 37.12 50.3915 39.04 52.6955 41.664C55.0635 44.288 56.2475 47.84 56.2475 52.32C56.2475 56.16 55.1595 59.68 52.9835 62.88C50.8715 66.016 47.6715 68.512 43.3835 70.368C39.0955 72.224 33.8795 73.152 27.7355 73.152ZM66.8743 4.8H82.4263V72H66.8743V4.8ZM159.526 72L159.43 31.68L139.654 64.896H132.646L112.966 32.544V72H98.3743V4.8H111.238L136.39 46.56L161.158 4.8H173.926L174.118 72H159.526ZM222.606 73.152C215.63 73.152 209.326 71.648 203.694 68.64C198.126 65.632 193.742 61.504 190.542 56.256C187.406 50.944 185.838 44.992 185.838 38.4C185.838 31.808 187.406 25.888 190.542 20.64C193.742 15.328 198.126 11.168 203.694 8.16C209.326 5.152 215.63 3.648 222.606 3.648C229.582 3.648 235.854 5.152 241.422 8.16C246.99 11.168 251.374 15.328 254.574 20.64C257.774 25.888 259.374 31.808 259.374 38.4C259.374 44.992 257.774 50.944 254.574 56.256C251.374 61.504 246.99 65.632 241.422 68.64C235.854 71.648 229.582 73.152 222.606 73.152ZM222.606 59.904C226.574 59.904 230.158 59.008 233.358 57.216C236.558 55.36 239.054 52.8 240.846 49.536C242.702 46.272 243.63 42.56 243.63 38.4C243.63 34.24 242.702 30.528 240.846 27.264C239.054 24 236.558 21.472 233.358 19.68C230.158 17.824 226.574 16.896 222.606 16.896C218.638 16.896 215.054 17.824 211.854 19.68C208.654 21.472 206.126 24 204.27 27.264C202.478 30.528 201.582 34.24 201.582 38.4C201.582 42.56 202.478 46.272 204.27 49.536C206.126 52.8 208.654 55.36 211.854 57.216C215.054 59.008 218.638 59.904 222.606 59.904ZM332.694 4.8V72H319.926L286.422 31.2V72H271.062V4.8H283.926L317.334 45.6V4.8H332.694ZM400.625 59.52V72H348.593V4.8H399.377V17.28H364.049V31.872H395.249V43.968H364.049V59.52H400.625ZM417.703 -5.72205e-06C420.391 -5.72205e-06 422.599 0.863995 424.327 2.592C426.055 4.256 426.919 6.464 426.919 9.216C426.919 10.496 426.759 11.776 426.439 13.056C426.119 14.336 425.447 16.256 424.423 18.816L418.855 32.64H409.351L413.479 17.472C411.879 16.768 410.631 15.712 409.735 14.304C408.839 12.896 408.391 11.2 408.391 9.216C408.391 6.464 409.255 4.256 410.983 2.592C412.775 0.863995 415.015 -5.72205e-06 417.703 -5.72205e-06ZM461.142 73.152C455.83 73.152 450.678 72.448 445.686 71.04C440.758 69.568 436.79 67.68 433.782 65.376L439.062 53.664C441.942 55.776 445.366 57.472 449.334 58.752C453.302 60.032 457.27 60.672 461.238 60.672C465.654 60.672 468.918 60.032 471.03 58.752C473.142 57.408 474.198 55.648 474.198 53.472C474.198 51.872 473.558 50.56 472.278 49.536C471.062 48.448 469.462 47.584 467.478 46.944C465.558 46.304 462.934 45.6 459.606 44.832C454.486 43.616 450.294 42.4 447.03 41.184C443.766 39.968 440.95 38.016 438.582 35.328C436.278 32.64 435.126 29.056 435.126 24.576C435.126 20.672 436.182 17.152 438.294 14.016C440.406 10.816 443.574 8.288 447.798 6.432C452.086 4.576 457.302 3.648 463.446 3.648C467.734 3.648 471.926 4.16 476.022 5.184C480.118 6.208 483.702 7.68 486.774 9.6L481.974 21.408C475.766 17.888 469.558 16.128 463.35 16.128C458.998 16.128 455.766 16.832 453.654 18.24C451.606 19.648 450.582 21.504 450.582 23.808C450.582 26.112 451.766 27.84 454.134 28.992C456.566 30.08 460.246 31.168 465.174 32.256C470.294 33.472 474.486 34.688 477.75 35.904C481.014 37.12 483.798 39.04 486.102 41.664C488.47 44.288 489.654 47.84 489.654 52.32C489.654 56.16 488.566 59.68 486.39 62.88C484.278 66.016 481.078 68.512 476.79 70.368C472.502 72.224 467.286 73.152 461.142 73.152Z" fill="white"/>
</g>
<defs>
<filter id="filter0_i" x="0.375488" y="-2" width="489.278" height="75.152" filterUnits="userSpaceOnUse" color-interpolation-filters="sRGB">
<feFlood flood-opacity="0" result="BackgroundImageFix"/>
<feBlend mode="normal" in="SourceGraphic" in2="BackgroundImageFix" result="shape"/>
<feColorMatrix in="SourceAlpha" type="matrix" values="0 0 0 0 0 0 0 0 0 0 0 0 0 0 0 0 0 0 127 0" result="hardAlpha"/>
<feOffset dy="-8"/>
<feGaussianBlur stdDeviation="1"/>
<feComposite in2="hardAlpha" operator="arithmetic" k2="-1" k3="1"/>
<feColorMatrix type="matrix" values="0 0 0 0 0 0 0 0 0 0 0 0 0 0 0 0 0 0 0.25 0"/>
<feBlend mode="normal" in2="shape" result="effect1_innerShadow"/>
</filter>
</defs>
</svg>
